Coordinates
version=1
nRows=8
nColumns=36
inDegrees=yes

Units are S.I. units (second, meters, Newtons, ...)
If the header above contains a line with 'inDegrees', this indicates whether rotational values are in degrees (yes) or radians (no).

endheader
time	pelvis_tilt	pelvis_list	pelvis_rotation	pelvis_tx	pelvis_ty	pelvis_tz	hip_flexion_r	hip_adduction_r	hip_rotation_r	knee_angle_r	knee_angle_r_beta	ankle_angle_r	subtalar_angle_r	mtp_angle_r	hip_flexion_l	hip_adduction_l	hip_rotation_l	knee_angle_l	knee_angle_l_beta	ankle_angle_l	subtalar_angle_l	mtp_angle_l	lumbar_extension	lumbar_bending	lumbar_rotation	arm_flex_r	arm_add_r	arm_rot_r	elbow_flex_r	pro_sup_r	arm_flex_l	arm_add_l	arm_rot_l	elbow_flex_l	pro_sup_l
      0.68000000	     -4.07774457	     -0.91948870	     -7.22614746	      0.71620546	      0.89120131	     -0.24751620	     -1.75317731	     -0.46791956	     -1.66822194	     39.52042250	      0.68976149	     -2.77423490	      3.83010026	     -6.82967615	     27.23379887	      2.36937910	      0.81000305	     19.64063096	      0.34279368	     -0.38193327	    -10.67998160	     -6.82967615	     -6.81863202	      2.54314425	      7.14856293	     15.54747110	    -16.93378703	     14.61480433	     55.20858928	    104.81992953	    -10.60224042	     -7.93780156	     -8.98657190	     35.47152859	    103.24588572
      0.69000000	     -3.94176550	     -0.52100634	     -6.76176893	      0.72889851	      0.89222363	     -0.24932660	     -0.03072878	     -1.72007303	     -3.14920046	     43.40474870	      0.75755578	     -5.79304072	      3.90668497	     -6.84064078	     26.73493855	      3.27319163	      1.47182450	     20.60570535	      0.35963740	      0.18016029	    -11.26245188	     -6.84064078	     -6.93026790	      2.08167158	      6.32975560	     14.70933130	    -16.63450850	     14.10155672	     54.90596519	    104.76791498	    -10.48114619	     -8.15998173	     -8.54756053	     35.66306185	    103.33760960
      0.70000000	     -3.74505764	     -0.10186050	     -6.35146527	      0.74133372	      0.89327280	     -0.25092667	      1.77051939	     -2.99343937	     -4.38634784	     47.39237479	      0.82715298	     -8.78282565	      3.47340979	     -6.84935310	     26.03552055	      4.14870985	      1.93964873	     21.29230948	      0.37162091	      0.87570400	    -11.74600126	     -6.84935310	     -7.14029144	      1.58862082	      5.53966036	     13.88617328	    -16.33295695	     13.66977877	     54.56033702	    104.73159101	    -10.27087014	     -8.41090369	     -8.14491736	     35.89103849	    103.42954120
      0.71000000	     -3.56409100	      0.28450716	     -5.94147257	      0.75350622	      0.89427870	     -0.25241289	      3.67979093	     -4.16890494	     -5.36563877	     51.34556486	      0.89614916	    -11.72496086	      2.46835300	     -6.85782487	     25.25022117	      4.96128406	      2.36225843	     21.77270133	      0.38000533	      1.57327772	    -12.10120521	     -6.85782487	     -7.37037417	      1.15224480	      4.74541942	     13.06498085	    -16.05383910	     13.19863638	     54.13834673	    104.70163835	    -10.02093387	     -8.71111277	     -7.70958578	     36.18980435	    103.53708129
      0.72000000	     -3.42885694	      0.50603900	     -5.55634724	      0.76533973	      0.89526142	     -0.25357253	      5.66416464	     -4.99406703	     -6.09484920	     55.11864973	      0.96200192	    -14.67510964	      0.39647810	     -6.87027963	     24.42561926	      5.53494595	      2.75259545	     22.08395769	      0.38543777	      2.18483062	    -12.32775002	     -6.87027963	     -7.59734919	      0.84122832	      4.04521878	     12.22967169	    -15.75011015	     12.57354536	     53.63377068	    104.69611821	     -9.71594369	     -9.04643432	     -7.09054187	     36.57677339	    103.69106970
      0.73000000	     -3.22118565	      0.60876571	     -5.21763700	      0.77699581	      0.89643628	     -0.25455371	      7.54443165	     -5.52577272	     -6.49811692	     58.58625935	      1.02252312	    -17.32204136	     -2.43133485	     -6.89252360	     23.46971183	      5.91963403	      2.93407122	     22.31359598	      0.38944572	      2.88445628	    -12.35008350	     -6.89252360	     -7.90982950	      0.74851800	      3.48243153	     11.33924543	    -15.46704523	     11.89383223	     53.18849941	    104.79417611	     -9.21920136	     -9.41413481	     -6.25719644	     36.83062519	    103.87901459
      0.74000000	     -2.98719992	      0.76489940	     -4.93993156	      0.78847200	      0.89764736	     -0.25546128	      9.44061390	     -6.13909990	     -6.79348818	     61.95301197	      1.08128404	    -18.13858447	     -3.67173409	     -6.90116165	     22.39441266	      6.33879062	      3.07231238	     22.33560511	      0.38982985	      3.65332789	    -12.32352043	     -6.90116165	     -8.26680038	      0.55240627	      2.86368039	     10.55045992	    -15.32921435	     11.69613086	     52.67647841	    104.82636134	     -8.72341358	     -9.70844558	     -5.93052672	     37.04812046	    103.95615801
      0.75000000	     -2.83444116	      0.78628867	     -4.70938006	      0.79977222	      0.89884598	     -0.25619688	     11.40173462	     -6.45817253	     -6.94998779	     64.98940056	      1.13427902	    -18.43974397	     -5.43178602	     -6.91027224	     21.39316508	      6.55813050	      3.16169329	     22.34473477	      0.38998919	      4.42418955	    -12.21527680	     -6.91027224	     -8.50151161	      0.53025308	      2.29831525	      9.76428182	    -15.14737851	     11.45656648	     52.02211709	    104.86482877	     -8.23372181	    -10.02384560	     -5.48360791	     37.35747936	    104.05573786
